<svg width="22" height="22" viewBox="0 0 22 22" fill="none" xmlns="http://www.w3.org/2000/svg">
<path d="M19.1 17.1833C18.9583 17.4833 18.775 17.7667 18.5333 18.0333C18.125 18.4833 17.675 18.8083 17.1666 19.0167C16.6666 19.225 16.125 19.3333 15.5416 19.3333C14.6916 19.3333 13.7833 19.1333 12.825 18.725C11.8666 18.3167 10.9083 17.7667 9.95829 17.075C8.99996 16.375 8.09163 15.6 7.22496 14.7417C6.36663 13.875 5.59163 12.9667 4.89996 12.0167C4.21663 11.0667 3.66663 10.1167 3.26663 9.175C2.86663 8.225 2.66663 7.31667 2.66663 6.45C2.66663 5.88333 2.76663 5.34167 2.96663 4.84167C3.16663 4.33333 3.48329 3.86667 3.92496 3.45C4.45829 2.925 5.04163 2.66667 5.65829 2.66667C5.89163 2.66667 6.12496 2.71667 6.33329 2.81667C6.54996 2.91667 6.74163 3.06667 6.89163 3.28333L8.82496 6.00833C8.97496 6.21667 9.08329 6.40833 9.15829 6.59167C9.23329 6.76667 9.27496 6.94167 9.27496 7.1C9.27496 7.3 9.21663 7.5 9.09996 7.69167C8.99163 7.88333 8.83329 8.08333 8.63329 8.28333L7.99996 8.94167C7.90829 9.03333 7.86663 9.14167 7.86663 9.275C7.86663 9.34167 7.87496 9.4 7.89163 9.46667C7.91663 9.53333 7.94163 9.58333 7.95829 9.63333C8.10829 9.90833 8.36663 10.2667 8.73329 10.7C9.10829 11.1333 9.50829 11.575 9.94163 12.0167C10.3916 12.4583 10.825 12.8667 11.2666 13.2417C11.7 13.6083 12.0583 13.8583 12.3416 14.0083C12.3833 14.025 12.4333 14.05 12.4916 14.075C12.5583 14.1 12.625 14.1083 12.7 14.1083C12.8416 14.1083 12.95 14.0583 13.0416 13.9667L13.675 13.3417C13.8833 13.1333 14.0833 12.975 14.275 12.875C14.4666 12.7583 14.6583 12.7 14.8666 12.7C15.025 12.7 15.1916 12.7333 15.375 12.8083C15.5583 12.8833 15.75 12.9917 15.9583 13.1333L18.7166 15.0917C18.9333 15.2417 19.0833 15.4167 19.175 15.625C19.2583 15.8333 19.3083 16.0417 19.3083 16.275C19.3083 16.575 19.2416 16.8833 19.1 17.1833Z" stroke="#BF9C56" stroke-width="2"/>
<path d="M15.9167 8.91667C15.9167 8.41667 15.525 7.65 14.9417 7.025C14.4083 6.45 13.7 6 13 6" stroke="#BF9C56" stroke-width="2" stroke-linecap="round" stroke-linejoin="round"/>
<path d="M20 9C20 5.13 16.87 2 13 2" stroke="#BF9C56" stroke-width="2" stroke-linecap="round" stroke-linejoin="round"/>
<path opacity="0.01" fill-rule="evenodd" clip-rule="evenodd" d="M21 1V21H1V1H21Z" stroke="#BF9C56" stroke-width="2"/>
</svg>
